<svg width="145" height="27" viewBox="0 0 145 27" fill="none" xmlns="http://www.w3.org/2000/svg">
<path d="M6.39619 20.2015C5.18285 20.2015 4.09085 19.9935 3.12019 19.5775C2.14952 19.1442 1.38685 18.5375 0.832188 17.7575C0.277521 16.9775 0.000187553 16.0675 0.000187553 15.0275H3.17219C3.24152 15.8075 3.54485 16.4489 4.08219 16.9515C4.63685 17.4542 5.40819 17.7055 6.39619 17.7055C7.41885 17.7055 8.21619 17.4629 8.78819 16.9775C9.36019 16.4749 9.64619 15.8335 9.64619 15.0535C9.64619 14.4469 9.46419 13.9529 9.10019 13.5715C8.75352 13.1902 8.31152 12.8955 7.77419 12.6875C7.25419 12.4795 6.52619 12.2542 5.59019 12.0115C4.41152 11.6995 3.44952 11.3875 2.70419 11.0755C1.97619 10.7462 1.35219 10.2435 0.832188 9.56753C0.312188 8.89153 0.0521876 7.9902 0.0521876 6.86353C0.0521876 5.82353 0.312188 4.91353 0.832188 4.13353C1.35219 3.35353 2.08019 2.75553 3.01619 2.33953C3.95219 1.92353 5.03552 1.71553 6.26619 1.71553C8.01685 1.71553 9.44685 2.15753 10.5562 3.04153C11.6829 3.9082 12.3069 5.1042 12.4282 6.62953H9.15219C9.10019 5.97086 8.78819 5.40753 8.21619 4.93953C7.64419 4.47153 6.89019 4.23753 5.95419 4.23753C5.10485 4.23753 4.41152 4.4542 3.87419 4.88753C3.33685 5.32086 3.06819 5.94486 3.06819 6.75953C3.06819 7.3142 3.23285 7.77353 3.56219 8.13753C3.90885 8.4842 4.34219 8.76153 4.86219 8.96953C5.38219 9.17753 6.09285 9.40286 6.99419 9.64553C8.19019 9.97486 9.16085 10.3042 9.90619 10.6335C10.6689 10.9629 11.3102 11.4742 11.8302 12.1675C12.3675 12.8435 12.6362 13.7535 12.6362 14.8975C12.6362 15.8162 12.3849 16.6829 11.8822 17.4975C11.3969 18.3122 10.6775 18.9709 9.72419 19.4735C8.78819 19.9589 7.67885 20.2015 6.39619 20.2015ZM19.5916 8.11153V16.0415C19.5916 16.5789 19.7129 16.9689 19.9556 17.2115C20.2156 17.4369 20.6489 17.5495 21.2556 17.5495H23.0756V20.0195H20.7356C19.4009 20.0195 18.3783 19.7075 17.6676 19.0835C16.9569 18.4595 16.6016 17.4455 16.6016 16.0415V8.11153H14.9116V5.69353H16.6016V2.13153H19.5916V5.69353H23.0756V8.11153H19.5916ZM24.8194 12.7915C24.8194 11.3529 25.1141 10.0789 25.7034 8.96953C26.3101 7.8602 27.1248 7.0022 28.1474 6.39553C29.1874 5.77153 30.3314 5.45953 31.5794 5.45953C32.7061 5.45953 33.6854 5.68486 34.5174 6.13553C35.3668 6.56886 36.0428 7.11486 36.5454 7.77353V5.69353H39.5354V20.0195H36.5454V17.8875C36.0428 18.5635 35.3581 19.1269 34.4914 19.5775C33.6248 20.0282 32.6368 20.2535 31.5274 20.2535C30.2968 20.2535 29.1701 19.9415 28.1474 19.3175C27.1248 18.6762 26.3101 17.7922 25.7034 16.6655C25.1141 15.5215 24.8194 14.2302 24.8194 12.7915ZM36.5454 12.8435C36.5454 11.8555 36.3374 10.9975 35.9214 10.2695C35.5228 9.54153 34.9941 8.98686 34.3354 8.60553C33.6768 8.2242 32.9661 8.03353 32.2034 8.03353C31.4408 8.03353 30.7301 8.2242 30.0714 8.60553C29.4128 8.96953 28.8754 9.51553 28.4594 10.2435C28.0608 10.9542 27.8614 11.8035 27.8614 12.7915C27.8614 13.7795 28.0608 14.6462 28.4594 15.3915C28.8754 16.1369 29.4128 16.7089 30.0714 17.1075C30.7474 17.4889 31.4581 17.6795 32.2034 17.6795C32.9661 17.6795 33.6768 17.4889 34.3354 17.1075C34.9941 16.7262 35.5228 16.1715 35.9214 15.4435C36.3374 14.6982 36.5454 13.8315 36.5454 12.8435ZM56.3245 5.69353L47.5365 26.7535H44.4685L47.3805 19.7855L41.7385 5.69353H45.0405L49.0705 16.6135L53.2565 5.69353H56.3245Z" fill="#3252DF"/>
<path d="M57.5733 12.8435C57.5733 11.3702 57.868 10.0789 58.4573 8.96953C59.064 7.84286 59.896 6.9762 60.9533 6.36953C62.0107 5.76286 63.224 5.45953 64.5933 5.45953C66.3267 5.45953 67.7567 5.87553 68.8833 6.70753C70.0273 7.5222 70.7987 8.6922 71.1973 10.2175H67.9993C67.7393 9.50686 67.3233 8.9522 66.7513 8.55353C66.1793 8.15486 65.46 7.95553 64.5933 7.95553C63.38 7.95553 62.4093 8.38886 61.6813 9.25553C60.9707 10.1049 60.6153 11.3009 60.6153 12.8435C60.6153 14.3862 60.9707 15.5909 61.6813 16.4575C62.4093 17.3242 63.38 17.7575 64.5933 17.7575C66.3093 17.7575 67.4447 17.0035 67.9993 15.4955H71.1973C70.7813 16.9515 70.0013 18.1129 68.8573 18.9795C67.7133 19.8289 66.292 20.2535 64.5933 20.2535C63.224 20.2535 62.0107 19.9502 60.9533 19.3435C59.896 18.7195 59.064 17.8529 58.4573 16.7435C57.868 15.6169 57.5733 14.3169 57.5733 12.8435ZM73.1632 12.7915C73.1632 11.3529 73.4578 10.0789 74.0472 8.96953C74.6538 7.8602 75.4685 7.0022 76.4912 6.39553C77.5312 5.77153 78.6752 5.45953 79.9232 5.45953C81.0498 5.45953 82.0292 5.68486 82.8612 6.13553C83.7105 6.56886 84.3865 7.11486 84.8892 7.77353V5.69353H87.8792V20.0195H84.8892V17.8875C84.3865 18.5635 83.7018 19.1269 82.8352 19.5775C81.9685 20.0282 80.9805 20.2535 79.8712 20.2535C78.6405 20.2535 77.5138 19.9415 76.4912 19.3175C75.4685 18.6762 74.6538 17.7922 74.0472 16.6655C73.4578 15.5215 73.1632 14.2302 73.1632 12.7915ZM84.8892 12.8435C84.8892 11.8555 84.6812 10.9975 84.2652 10.2695C83.8665 9.54153 83.3378 8.98686 82.6792 8.60553C82.0205 8.2242 81.3098 8.03353 80.5472 8.03353C79.7845 8.03353 79.0738 8.2242 78.4152 8.60553C77.7565 8.96953 77.2192 9.51553 76.8032 10.2435C76.4045 10.9542 76.2052 11.8035 76.2052 12.7915C76.2052 13.7795 76.4045 14.6462 76.8032 15.3915C77.2192 16.1369 77.7565 16.7089 78.4152 17.1075C79.0912 17.4889 79.8018 17.6795 80.5472 17.6795C81.3098 17.6795 82.0205 17.4889 82.6792 17.1075C83.3378 16.7262 83.8665 16.1715 84.2652 15.4435C84.6812 14.6982 84.8892 13.8315 84.8892 12.8435ZM95.2303 8.11153V16.0415C95.2303 16.5789 95.3516 16.9689 95.5943 17.2115C95.8543 17.4369 96.2876 17.5495 96.8943 17.5495H98.7143V20.0195H96.3743C95.0396 20.0195 94.0169 19.7075 93.3063 19.0835C92.5956 18.4595 92.2403 17.4455 92.2403 16.0415V8.11153H90.5503V5.69353H92.2403V2.13153H95.2303V5.69353H98.7143V8.11153H95.2303ZM102.954 3.79553C102.417 3.79553 101.966 3.61353 101.602 3.24953C101.238 2.88553 101.056 2.43486 101.056 1.89753C101.056 1.3602 101.238 0.90953 101.602 0.545531C101.966 0.18153 102.417 -0.000469804 102.954 -0.000469804C103.474 -0.000469804 103.916 0.18153 104.28 0.545531C104.644 0.90953 104.826 1.3602 104.826 1.89753C104.826 2.43486 104.644 2.88553 104.28 3.24953C103.916 3.61353 103.474 3.79553 102.954 3.79553ZM104.41 5.69353V20.0195H101.446V5.69353H104.41ZM114.516 20.2535C113.164 20.2535 111.942 19.9502 110.85 19.3435C109.758 18.7195 108.9 17.8529 108.276 16.7435C107.652 15.6169 107.34 14.3169 107.34 12.8435C107.34 11.3875 107.66 10.0962 108.302 8.96953C108.943 7.84286 109.818 6.9762 110.928 6.36953C112.037 5.76286 113.276 5.45953 114.646 5.45953C116.015 5.45953 117.254 5.76286 118.364 6.36953C119.473 6.9762 120.348 7.84286 120.99 8.96953C121.631 10.0962 121.952 11.3875 121.952 12.8435C121.952 14.2995 121.622 15.5909 120.964 16.7175C120.305 17.8442 119.404 18.7195 118.26 19.3435C117.133 19.9502 115.885 20.2535 114.516 20.2535ZM114.516 17.6795C115.278 17.6795 115.989 17.4975 116.648 17.1335C117.324 16.7695 117.87 16.2235 118.286 15.4955C118.702 14.7675 118.91 13.8835 118.91 12.8435C118.91 11.8035 118.71 10.9282 118.312 10.2175C117.913 9.48953 117.384 8.94353 116.726 8.57953C116.067 8.21553 115.356 8.03353 114.594 8.03353C113.831 8.03353 113.12 8.21553 112.462 8.57953C111.82 8.94353 111.309 9.48953 110.928 10.2175C110.546 10.9282 110.356 11.8035 110.356 12.8435C110.356 14.3862 110.746 15.5822 111.526 16.4315C112.323 17.2635 113.32 17.6795 114.516 17.6795ZM132.11 5.45953C133.236 5.45953 134.242 5.69353 135.126 6.16153C136.027 6.62953 136.729 7.32286 137.232 8.24153C137.734 9.1602 137.986 10.2695 137.986 11.5695V20.0195H135.048V12.0115C135.048 10.7289 134.727 9.74953 134.086 9.07353C133.444 8.3802 132.569 8.03353 131.46 8.03353C130.35 8.03353 129.466 8.3802 128.808 9.07353C128.166 9.74953 127.846 10.7289 127.846 12.0115V20.0195H124.882V5.69353H127.846V7.33153C128.331 6.7422 128.946 6.28286 129.692 5.95353C130.454 5.6242 131.26 5.45953 132.11 5.45953ZM142.962 20.2015C142.425 20.2015 141.974 20.0195 141.61 19.6555C141.246 19.2915 141.064 18.8409 141.064 18.3035C141.064 17.7662 141.246 17.3155 141.61 16.9515C141.974 16.5875 142.425 16.4055 142.962 16.4055C143.482 16.4055 143.924 16.5875 144.288 16.9515C144.652 17.3155 144.834 17.7662 144.834 18.3035C144.834 18.8409 144.652 19.2915 144.288 19.6555C143.924 20.0195 143.482 20.2015 142.962 20.2015Z" fill="#152C5B"/>
</svg>
